<?xml version="1.0" encoding="utf-8"?>
<!-- Generator: Adobe Illustrator 23.0.5, SVG Export Plug-In . SVG Version: 6.00 Build 0)  -->
<svg version="1.1" xmlns="http://www.w3.org/2000/svg" xmlns:xlink="http://www.w3.org/1999/xlink" x="0px" y="0px"
	 viewBox="0 0 471 385" style="enable-background:new 0 0 471 385;" xml:space="preserve">
<g id="Capa_1">
	<g>
		<path d="M179.4,72.8l-1.2,31.2c0,0.5,0,1.1,0,1.6c0.4,11.8,10.4,21,22.2,20.5c11.8-0.4,21-10.4,20.5-22.2l-1.2-31.2l-0.6-15.6
			c-0.1-2.7-0.1-4.7-0.5-9.4c-0.4-4-1.3-8-2.6-11.8c-5.3-15.3-17.6-27.7-32.6-32.7c-3.7-1.3-7.6-2.1-11.5-2.5
			c-1.9-0.3-3.9-0.2-5.8-0.3c-2,0-2.8,0.1-4.3,0.2l-15.6,0.8c-10.4,0.4-20.8,0.8-31.2,0.9c-10.4,0.2-20.8,0.1-31.2-0.4L52.4,0
			C36.7-0.6,20.5,6.9,11,19.6c-4.8,6.3-8.3,13.7-9.9,21.5C0.7,43.1,0.4,45,0.2,47C0.1,48.9,0,51.2,0,52.7l0.1,7.8
			c0,10.4,0.5,20.8,0.7,31.2c0.5,20.8,1.3,41.7,1.6,62.5c0.8,41.7,0,83.3-1.3,125l-0.8,31.2L0,326.1c0,2-0.1,6.6,0.5,10.4
			c0.5,3.9,1.6,7.8,3,11.5c5.5,15,18.4,26.8,33.8,31.3c3.8,1.1,7.8,1.8,11.7,2l3,0.1l2.2,0l3.9,0c5.2,0,10.4-0.2,15.6-0.4
			c5.4-0.2,10.1-0.2,16-0.6l9-0.7c3-0.4,5.9-1,8.9-1.5c11.7-2.3,23.1-6,33.6-11.2c5.4-2.3,10.3-5.6,15.4-8.6
			c4.8-3.4,9.7-6.7,14.1-10.6c3.3-2.6,6.3-5.5,9.2-8.5l-1,24c0,0.6,0,1.2,0,1.8c0.5,11.5,10.2,20.3,21.6,19.9
			c11.5-0.5,20.3-10.2,19.9-21.6l-5.2-122.9c0.2-5.7,0.4-11.5,0.8-17.2l1-15.7c0.3-7.8-1.4-15.7-4.7-23
			c-6.5-14.6-20.3-25.5-36.1-29.1c-2-0.4-4-0.7-6-1c-1.9-0.2-4.3-0.3-5.7-0.4l-7.8-0.2l-15.6-0.4c-20.8-0.6-41.7-0.9-62.5-1.1
			c-0.1,0-0.2,0-0.3,0c-11.5,0.1-20.7,9.4-20.6,20.9c0.1,11.5,9.4,20.7,20.9,20.6c20.8-0.1,41.7-0.5,62.5-1.1l15.6-0.4l7.8-0.2
			c1.8,0,2.5,0,3.8,0.2c4.6,0.7,9,3.8,11.5,8.1c1.3,2.1,2.1,4.5,2.5,7.2l1,15.5c0.4,5.7,0.6,11.5,0.8,17.2l-1.5,36.4
			c-0.3,1.4-0.6,2.8-1.1,4.2c-1,4.3-2.9,8.3-4.5,12.4c-2.2,3.8-4.2,7.8-7,11.4c-2.4,3.8-5.6,7-8.5,10.5c-3.3,3.1-6.4,6.4-10.1,9.1
			c-7,5.8-15,10.3-23.3,13.9c-8.2,3.8-17.1,5.9-25.9,7c-2.2,0.2-4.4,0.6-6.6,0.7l-6.6,0.1c-4.5,0.1-10.2-0.2-15.3-0.3
			c-5.2-0.1-10.4-0.3-15.6-0.4l-3.9,0c-0.6,0-1.5,0-1.7,0l-0.9-0.1c-1.3-0.1-2.5-0.4-3.6-0.7c-2.3-0.7-4.5-2.1-6.3-3.8
			c-1.9-1.6-3.4-3.7-4.3-6c-0.4-1.1-0.9-2.3-1-3.5c-0.2-1.3-0.3-2-0.3-5.2l-0.2-15.6l-0.8-31.2c-1.2-41.7-2.1-83.3-1.3-125
			c0.3-20.8,1.1-41.7,1.6-62.5c0.2-10.4,0.7-20.8,0.7-31.2l0.1-7.8c0.1-1.8,0.2-2.7,0.5-4c0.6-2.4,1.7-4.6,3.3-6.5
			c3.1-3.9,7.6-6.3,12.8-7l31.2-1.8c10.4-0.4,20.8-0.6,31.2-0.4c10.4,0,20.8,0.4,31.2,0.9l15.6,0.8c1.1,0.1,3,0.1,3.5,0.2
			c0.7,0.2,1.3,0.1,1.9,0.3c1.3,0.3,2.5,0.7,3.6,1.3c4.6,2.1,7.9,6.5,8.9,11c0.5,2.7,0.4,3.2,0.1,9.7L179.4,72.8z"/>
		<path d="M113.1,69.4h-8.6c-9.5,0-17.3,7.7-17.3,17.3V104c0,9.5,7.7,17.3,17.3,17.3h17.3c9.5,0,17.3-7.7,17.3-17.3V86.7
			c0-9.5-7.7-17.3-17.3-17.3H113.1z"/>
		<path d="M104.5,294.2c19.1,0,34.6-15.5,34.6-34.6V251c0-9.5-7.7-17.3-17.3-17.3h-17.3c-9.5,0-17.3,7.7-17.3,17.3v25.9
			C87.2,286.5,94.9,294.2,104.5,294.2z"/>
		<path d="M465.5,233.7c0-0.1,0-0.2-0.1-0.4c0.1-19.5,0.5-39.1,0.7-58.6l1.4-65.9l0.6-33l0.1-16.5l0-4.1l0-2.1l0-1l-0.1-1.5
			c-0.1-4.2-0.7-8.4-1.8-12.4C462.4,21.9,449.7,8,433.7,2.8c-3.9-1.4-8.1-2.1-12.2-2.5c-2-0.1-4.2-0.1-6.1-0.1l-4.1,0.2l-16.5,1
			c-11,0.7-22,0.9-33,0.8c-11-0.1-22-0.3-33-0.9l-16.5-0.8l-8.2-0.4c-0.6,0-1.5,0-2.6,0l-3.1,0.1c-2.1,0.2-4.1,0.4-6.2,0.8
			c-8.2,1.6-16.1,5.1-22.7,10.2c-6.6,5.2-11.9,12.1-15.4,19.8c-1.7,3.9-3.1,8-3.8,12.2c-0.4,2.1-0.7,4.2-0.8,6.3l-0.2,3l-0.1,2.1
			L248.9,71l-0.9,33c0,0.4,0,0.8,0,1.2c0.3,11.5,9.9,20.5,21.3,20.1c11.5-0.3,20.5-9.9,20.1-21.3l-0.9-33L288,54.6l-0.1-2.1l0-1.1
			c-0.1-0.6,0-1.2,0.1-1.8c0.1-1.2,0.4-2.4,0.8-3.6c1.7-4.7,5.8-8.7,10.9-10.3l2-0.5l1-0.1c0.3-0.1,0.7-0.1,1.5-0.1l8.2-0.4
			l16.5-0.8c11-0.6,22-0.8,33-0.9c11-0.1,22,0.1,33,0.8l16.5,1l4.1,0.2l2.2,0.4c1.3,0.4,2.6,0.7,3.8,1.3c4.7,2.1,8.7,6.3,10.1,11.3
			c0.4,1.2,0.6,2.5,0.6,3.9l0.1,0.5l0,1l0,2.1l0,4.1l0.1,16.5l0.6,33l0.9,43.7c-41.3,0.2-82.7,0.6-124.1,1.6l-4.1,0.1l-2.1,0l-3,0.2
			c-4.2,0.2-8.4,1.1-12.5,2.3c-8.1,2.5-15.5,7-21.5,12.9c-6.1,5.8-10.5,13.3-13,21.2c-1.2,4-1.9,8.1-2.2,12.3l0,3.1l0,1.5l0.1,1.1
			l0.3,4.1c0.8,11,1.6,22,1.7,33c0.1,11-0.1,22-0.5,33l-1.4,33l-0.7,16.5c-0.3,7.6,1.4,16.6,5.1,24c7.2,15.2,22.3,26.2,39,28.6
			c4,0.7,8.9,0.6,11,0.6l8.2-0.1l16.5-0.5l16.6-0.5c6.4-0.2,12.7-1,19-2.2c12.5-2.5,24.6-6.7,35.7-12.8c10.5-5.7,20-13,28.4-21.5
			l-0.8,19.6c0,0.6,0,1.2,0,1.8c0.5,11.5,10.2,20.3,21.6,19.9c11.5-0.5,20.3-10.2,19.9-21.6L465.5,233.7z M426.4,298.4
			c-8.4,16.7-22,31.2-38.9,39.3c-8.4,4.2-17.3,7-26.5,8.1c-4.6,0.5-9.2,0.8-13.8,0.7l-16.4-0.5l-16.5-0.5c-5.2-0.1-12.3,0-13.6-0.4
			c-5.1-0.8-9.6-4.5-12-9c-1.1-2.4-2-4.5-2.1-7.8l-0.7-16.5l-1.4-33c-0.3-11-0.5-22-0.5-33c0-11,0.9-22,1.7-33l0.3-4.1l0.1-1
			l0.1-0.5l0.2-1c0.3-1.3,0.7-2.6,1.3-3.8c1.1-2.4,2.6-4.6,4.5-6.3c2-1.7,4.2-3,6.7-3.5c1.2-0.2,2.4-0.5,3.7-0.4l1.1,0l2.1,0
			l4.1,0.1c41.6,1,83.2,1.4,124.8,1.6c0.2,13.2,0.4,26.3,0.5,39.5c0,0.1,0,0.2,0,0.3l-1.9,46C431.6,286.2,429.4,292.5,426.4,298.4z"
			/>
	</g>
</g>
<g id="Capa_2">
</g>
</svg>
